<?xml version="1.0" standalone="no"?>
<!DOCTYPE svg PUBLIC "-//W3C//DTD SVG 20010904//EN"
 "http://www.w3.org/TR/2001/REC-SVG-20010904/DTD/svg10.dtd">
<svg version="1.0" xmlns="http://www.w3.org/2000/svg"
 width="600.000000pt" height="600.000000pt" viewBox="0 0 600.000000 600.000000"
 preserveAspectRatio="xMidYMid meet">
<metadata>
Created by potrace 1.11, written by Peter Selinger 2001-2013
</metadata>
<g transform="translate(0.000000,600.000000) scale(0.100000,-0.100000)"
fill="#000000" stroke="none">
<path d="M2830 5994 c-536 -46 -945 -172 -1369 -423 -382 -226 -762 -599
-1007 -988 -30 -48 -95 -169 -144 -268 -297 -599 -382 -1292 -239 -1950 92
-418 274 -816 535 -1167 136 -182 395 -444 574 -578 438 -330 915 -525 1459
-597 172 -23 550 -23 722 0 353 47 672 144 983 300 310 156 518 307 771 561
265 266 414 473 576 801 307 623 387 1345 223 2014 -139 564 -418 1053 -830
1452 -131 128 -195 181 -339 284 -413 296 -876 476 -1387 540 -121 15 -439 27
-528 19z m-1116 -1834 c75 -24 145 -68 181 -116 34 -44 65 -123 65 -165 l0
-30 45 26 c113 67 246 28 308 -89 16 -32 21 -59 22 -119 0 -82 8 -96 50 -97
11 0 33 -7 49 -15 16 -9 29 -14 30 -13 19 50 110 214 143 258 94 126 219 171
331 120 42 -19 45 -19 75 -3 22 12 56 18 109 18 69 0 80 -3 119 -30 64 -45 94
-111 92 -200 -2 -83 -25 -155 -88 -273 l-45 -84 25 -30 c38 -45 51 -99 35
-150 -37 -125 -135 -273 -217 -327 -89 -59 -177 -74 -273 -45 -42 12 -59 13
-78 4 -49 -22 -143 -24 -197 -3 -43 16 -56 17 -95 6 -25 -7 -67 -10 -93 -6
-26 3 -76 -1 -110 -7 -53 -11 -71 -10 -125 4 -59 15 -68 15 -119 0 -92 -27
-179 -5 -251 63 -30 28 -38 32 -52 21 -67 -50 -142 -99 -180 -118 -120 -61
-261 -90 -435 -91 -180 0 -314 37 -428 119 -145 104 -214 241 -205 410 8 144
70 277 181 384 99 97 230 144 298 108 18 -10 19 -7 19 54 0 105 29 167 119
257 110 110 215 158 396 179 96 12 224 3 299 -20z m3219 -125 c314 -55 603
-270 747 -555 92 -183 129 -415 99 -626 -53 -384 -339 -725 -708 -843 -187
-61 -416 -67 -601 -16 -492 135 -821 606 -770 1104 49 474 374 836 840 936 87
18 288 18 393 0z m-3664 -1517 c90 -56 77 -224 -24 -317 -52 -47 -84 -62 -138
-63 -73 -1 -116 68 -97 157 21 102 99 186 171 184 l34 0 -40 -18 c-71 -33
-126 -116 -133 -205 -9 -117 83 -142 182 -48 74 71 98 180 56 250 -44 73 -173
93 -230 37 -19 -20 -25 -36 -25 -70 0 -52 -18 -56 -23 -5 -6 58 33 103 103
121 45 12 125 0 164 -23z m1087 13 c-3 -5 -3 -23 0 -40 l6 -31 41 35 c45 39
85 50 159 43 42 -4 57 -11 80 -37 34 -38 35 -72 6 -119 -49 -80 -194 -96 -258
-27 -13 14 -27 25 -31 25 -10 0 -39 -95 -39 -128 0 -37 28 -88 56 -101 56 -25
151 -6 202 42 13 12 51 75 83 140 54 106 79 140 95 124 3 -3 -15 -43 -40 -89
-52 -95 -56 -111 -23 -81 28 26 63 44 70 37 3 -3 -8 -35 -25 -70 -47 -101 -18
-100 43 1 38 63 88 96 113 76 23 -19 20 -63 -9 -104 -14 -22 -20 -39 -14 -43
15 -9 45 22 79 83 31 55 66 80 95 70 24 -10 30 -37 10 -55 -17 -16 -17 -15
-11 11 6 24 4 28 -11 25 -26 -5 -63 -66 -63 -104 0 -29 4 -34 23 -34 27 0 58
32 77 78 15 38 63 82 91 82 11 0 24 -11 31 -25 9 -20 7 -33 -14 -75 -14 -28
-22 -52 -18 -55 19 -12 51 33 86 121 41 100 92 173 112 160 7 -4 12 -14 12
-22 0 -23 -48 -120 -67 -135 -10 -8 -3 11 16 43 18 32 31 66 29 75 -2 11 -16
-9 -36 -50 -18 -38 -30 -73 -26 -78 3 -6 -1 -18 -10 -28 -21 -23 -31 -77 -17
-86 17 -10 36 9 70 71 17 29 42 61 55 69 27 18 77 17 83 -2 3 -7 -3 -9 -17 -6
-36 9 -124 -97 -105 -127 11 -17 34 1 65 51 45 74 86 85 50 14 -11 -22 -20
-48 -20 -59 0 -18 1 -18 20 -1 22 20 63 122 55 135 -3 5 1 17 10 27 9 10 30
37 46 61 46 66 58 51 46 -53 -1 -12 -15 -32 -31 -45 l-28 -24 7 23 c5 17 4 21
-5 16 -6 -4 -9 -17 -6 -30 4 -14 0 -27 -8 -35 -17 -14 -30 -65 -21 -80 10 -16
42 16 67 64 36 70 90 105 116 74 17 -22 -5 -58 -48 -76 -33 -14 -40 -22 -40
-44 0 -42 32 -36 75 15 31 36 34 37 22 12 -31 -63 -95 -89 -124 -50 -12 17
-14 17 -31 2 -23 -21 -58 -22 -70 -1 -8 14 -10 14 -21 0 -17 -21 -61 -21 -61
-1 0 8 -4 15 -9 15 -5 0 -14 -7 -21 -15 -16 -20 -47 -19 -58 1 -8 14 -10 14
-21 0 -17 -21 -70 -21 -77 -1 -5 12 -10 13 -19 5 -8 -6 -41 -13 -74 -16 -47
-3 -62 -1 -69 12 -8 14 -10 14 -21 0 -18 -22 -87 -21 -99 0 -8 15 -12 15 -33
2 -34 -21 -128 -23 -135 -3 -5 13 -10 12 -31 -5 -45 -35 -73 -2 -48 57 8 20
13 38 10 41 -8 8 -43 -28 -67 -67 -24 -40 -38 -52 -50 -45 -5 3 -22 -5 -40
-17 -43 -31 -132 -38 -182 -14 -84 40 -105 141 -51 250 14 30 25 67 24 82 -4
47 1 73 12 73 5 0 8 -4 5 -9z m-533 -73 c8 -24 -23 -93 -68 -153 -32 -42 -45
-69 -45 -92 0 -23 5 -33 15 -33 17 0 56 58 76 113 7 20 19 37 27 37 16 0 13
-20 -14 -92 -21 -53 -14 -70 16 -43 23 21 63 122 56 142 -3 7 -1 13 3 13 5 0
21 20 35 45 47 80 96 79 67 -2 -7 -19 -11 -36 -9 -39 3 -2 -15 -25 -38 -51
-39 -42 -64 -96 -51 -110 16 -15 49 15 79 72 30 59 53 83 66 70 3 -2 -10 -32
-27 -65 -37 -69 -36 -108 2 -72 12 11 36 46 52 76 28 51 51 74 63 62 2 -3 -3
-21 -12 -40 -24 -51 -47 -118 -42 -123 9 -10 46 19 66 52 12 20 25 34 28 31
11 -12 -48 -84 -82 -100 -20 -9 -36 -21 -36 -25 0 -22 -84 -101 -117 -110 -68
-19 -101 35 -47 78 26 21 31 23 100 40 29 8 44 19 53 37 15 34 9 40 -14 14
-20 -22 -61 -27 -67 -9 -3 9 -9 9 -25 0 -30 -16 -60 -14 -71 5 -8 14 -10 14
-21 0 -15 -18 -56 -21 -66 -6 -4 7 -12 7 -25 0 -27 -14 -51 -12 -70 5 -15 14
-18 14 -30 0 -19 -23 -49 -18 -60 10 -8 21 -5 33 15 65 14 22 32 40 40 40 19
0 19 2 -6 -55 -11 -25 -18 -49 -15 -52 12 -12 45 30 67 85 31 79 68 154 87
175 18 20 39 22 45 5z m37 -88 c0 -11 -6 -20 -13 -20 -19 0 -27 10 -20 26 8
21 33 17 33 -6z m-440 -38 c0 -5 -13 -33 -30 -63 -41 -75 -40 -110 2 -72 20
18 25 4 6 -15 -17 -17 -57 -15 -64 3 -8 20 24 113 47 136 20 20 39 25 39 11z
m82 3 c3 -3 -8 -31 -24 -61 -15 -31 -28 -63 -28 -71 0 -30 34 -6 57 39 41 82
111 122 144 82 12 -15 11 -16 -8 -10 -12 4 -31 2 -42 -4 -24 -12 -71 -89 -71
-115 0 -16 2 -16 25 -1 26 17 34 9 13 -12 -15 -15 -55 -16 -60 -1 -3 9 -9 9
-25 0 -34 -17 -53 -13 -63 14 -9 25 -3 41 47 123 13 21 25 27 35 17z m-406
-230 c89 -64 109 -75 160 -90 54 -16 79 -13 88 11 9 23 -10 50 -44 64 -37 16
-40 33 -3 19 42 -16 63 -39 63 -71 0 -34 -28 -48 -93 -48 -56 1 -118 30 -179
85 -52 47 -66 52 -99 35 -23 -13 -25 -7 -3 14 24 25 58 19 110 -19z m1332
-166 c29 -10 43 -32 35 -56 -3 -7 -9 -13 -14 -13 -4 0 -6 7 -3 15 18 47 -75
62 -123 21 -35 -31 -26 -50 39 -86 66 -36 78 -49 78 -81 0 -60 -93 -119 -186
-119 -72 0 -134 58 -120 113 7 29 43 77 58 77 6 0 3 -9 -7 -20 -9 -10 -20 -39
-22 -63 -7 -57 17 -83 82 -93 77 -11 165 43 165 101 0 27 -17 42 -84 75 -44
21 -51 30 -54 57 -3 25 2 35 23 49 21 14 59 27 96 33 3 1 20 -4 37 -10z m650
-110 c2 -20 -10 -37 -57 -82 -57 -55 -59 -58 -38 -66 12 -5 29 -6 37 -3 13 5
13 3 1 -11 -15 -19 -48 -22 -71 -7 -9 5 -19 5 -27 -2 -7 -6 -13 -7 -13 -3 0 3
31 37 68 73 72 70 95 112 62 112 -10 0 -26 -7 -34 -16 -9 -8 -16 -11 -16 -6 0
15 43 42 65 39 13 -1 21 -11 23 -28z m170 19 c18 -18 15 -47 -12 -104 -28 -60
-69 -96 -105 -92 -56 6 -30 123 39 182 34 28 59 33 78 14z m102 -103 c-28 -52
-56 -95 -61 -95 -14 0 -11 8 32 86 22 41 37 74 33 74 -4 0 3 12 17 26 41 43
33 8 -21 -91z m152 93 c-14 -14 -16 -54 -2 -63 5 -3 17 6 26 21 15 21 15 29 5
46 -10 16 -10 19 1 16 22 -7 21 -52 -2 -73 -12 -11 -20 -31 -20 -50 0 -44 -34
-85 -70 -85 -33 0 -53 21 -44 46 9 24 44 64 57 64 6 0 1 -10 -10 -22 -28 -32
-34 -55 -19 -67 34 -28 69 28 47 75 -17 38 -13 72 10 95 11 11 23 18 27 15 3
-4 0 -12 -6 -18z m-972 -39 c0 -5 -7 -9 -15 -9 -15 0 -20 12 -9 23 8 8 24 -1
24 -14z m820 6 c0 -2 -10 -10 -22 -16 -21 -11 -22 -11 -9 4 13 16 31 23 31 12z
m-612 -48 c2 -9 -1 -17 -7 -17 -6 0 -8 7 -5 15 10 24 -13 17 -35 -11 -12 -15
-21 -37 -21 -50 0 -48 40 -40 65 13 22 45 50 73 75 73 28 0 26 -36 -2 -51 -22
-12 -22 -11 -5 8 21 24 23 40 2 23 -15 -13 -45 -67 -45 -82 0 -19 40 -6 59 20
l21 27 -11 -26 c-16 -38 -54 -57 -81 -40 -15 9 -23 10 -31 2 -16 -16 -57 -13
-64 4 -5 14 -8 14 -29 0 -14 -9 -29 -13 -34 -10 -13 8 -13 52 0 60 6 4 9 13 8
22 -3 16 27 41 37 31 4 -3 -3 -24 -14 -47 -24 -46 -25 -51 -11 -51 5 0 22 19
36 43 14 23 33 48 42 55 22 16 46 11 50 -11z m-228 3 c0 -5 -8 -25 -17 -45 -9
-19 -13 -38 -9 -42 8 -9 32 18 58 66 9 17 24 31 33 31 10 0 13 -4 8 -12 -4 -7
-8 -19 -9 -26 -1 -7 -14 -28 -28 -46 -27 -35 -73 -46 -83 -20 -8 21 19 104 34
104 7 0 13 -4 13 -10z"/>
<path d="M1439 4009 c-138 -12 -233 -54 -311 -137 -68 -72 -76 -150 -24 -220
37 -50 68 -70 219 -138 170 -77 208 -102 244 -155 75 -113 13 -278 -145 -383
-101 -67 -203 -98 -339 -104 -332 -14 -496 140 -428 401 22 85 57 146 116 205
62 60 47 70 -27 19 -57 -39 -123 -131 -153 -211 -72 -194 48 -376 285 -432 86
-20 299 -15 389 10 147 40 301 147 381 263 55 80 68 139 46 207 -27 83 -80
126 -277 221 -184 89 -238 131 -250 198 -21 113 165 228 369 229 104 0 170
-32 201 -99 29 -61 2 -115 -69 -135 -26 -7 -34 -13 -23 -15 55 -13 147 61 147
118 0 120 -127 177 -351 158z"/>
<path d="M1418 3794 c-27 -8 -48 -18 -48 -23 0 -9 80 -45 85 -39 5 5 18 78 14
77 -2 0 -25 -7 -51 -15z"/>
<path d="M2797 3752 c-62 -37 -176 -254 -252 -477 -36 -105 -80 -188 -130
-241 -48 -52 -82 -63 -115 -36 l-24 19 42 49 c111 132 126 313 27 338 -84 21
-193 -68 -275 -225 -65 -123 -123 -189 -168 -189 -37 0 -45 10 -44 58 1 78 29
152 79 209 27 30 64 78 84 106 33 47 41 53 80 57 51 6 59 24 12 28 l-31 3 38
82 c48 103 57 150 35 183 -8 13 -25 24 -37 24 -36 0 -110 -87 -162 -192 l-48
-97 -41 -3 c-53 -4 -63 -28 -12 -28 31 0 36 -3 30 -17 -82 -212 -110 -346 -82
-400 39 -74 117 -65 197 25 l50 56 0 -33 c0 -45 16 -70 56 -87 37 -15 72 -11
116 14 22 13 32 14 50 4 68 -35 148 -2 200 83 l18 30 0 -43 c0 -54 41 -102 87
-102 47 0 115 41 153 93 l35 47 5 -45 c3 -24 13 -54 22 -65 42 -48 125 -33
190 33 39 41 127 197 110 197 -5 0 -33 -41 -63 -91 -60 -102 -97 -139 -139
-139 -39 0 -54 23 -53 83 2 78 26 131 95 210 147 171 257 397 228 471 -20 54
-94 22 -154 -69 -52 -78 -127 -239 -172 -370 -42 -123 -117 -259 -164 -299
-39 -32 -85 -35 -101 -4 -32 60 2 179 76 259 99 108 230 339 242 426 10 75
-29 103 -90 65z m61 -75 c-7 -55 -69 -181 -147 -295 -56 -81 -101 -135 -101
-119 0 10 100 237 135 307 39 77 91 150 106 150 8 0 10 -15 7 -43z m282 17 c0
-30 -42 -132 -86 -209 -54 -93 -157 -232 -161 -218 -8 23 142 336 196 411 30
41 51 48 51 16z m-1006 -48 c-1 -21 -18 -70 -40 -114 -35 -70 -42 -77 -71 -80
-18 -2 -33 0 -33 3 0 4 18 45 39 91 67 142 107 181 105 100z m-104 -232 c0
-10 -104 -144 -112 -144 -5 0 -1 17 8 38 8 20 22 54 31 75 13 31 20 37 44 37
16 0 29 -2 29 -6z m340 -59 c23 -27 13 -111 -21 -185 -32 -70 -45 -83 -55 -55
-8 19 -48 19 -64 0 -8 -10 -10 -31 -6 -63 6 -45 4 -49 -19 -60 -84 -38 -109
25 -60 153 59 157 177 268 225 210z"/>
<path d="M980 3475 c-6 -19 -40 -66 -75 -105 -67 -73 -95 -134 -95 -211 0
-148 374 -163 545 -22 34 29 75 90 75 114 0 22 -30 41 -169 103 -125 55 -185
89 -238 132 l-31 25 -12 -36z"/>
<path d="M4540 3779 c-113 -50 -254 -113 -315 -139 -60 -27 -120 -59 -132 -70
-38 -37 -50 -3 158 -470 45 -102 123 -279 174 -395 203 -459 236 -530 250
-544 8 -8 29 -15 47 -14 41 0 646 267 671 295 9 11 17 32 17 47 0 14 -41 118
-91 231 -50 113 -129 293 -175 400 -47 107 -102 231 -123 275 -20 44 -70 157
-111 252 -41 94 -81 181 -89 192 -33 43 -63 37 -281 -60z m292 -118 c33 -73
58 -134 56 -136 -2 -1 -64 -29 -138 -63 -104 -47 -138 -58 -147 -49 -11 12
-108 228 -115 256 -2 10 38 33 127 72 72 32 137 57 144 56 9 -1 40 -60 73
-136z m-350 -146 c32 -72 56 -134 54 -140 -4 -11 -274 -130 -280 -124 -18 20
-117 272 -110 279 5 4 36 19 69 33 33 14 89 39 125 56 36 17 69 30 74 28 5 -2
36 -61 68 -132z m502 -193 c31 -68 56 -129 56 -136 0 -10 -253 -126 -277 -126
-11 0 -129 267 -122 274 14 14 275 124 280 118 3 -4 32 -63 63 -130z m-351
-149 c32 -71 57 -133 57 -139 0 -13 -12 -19 -169 -88 -58 -26 -107 -43 -111
-39 -20 24 -120 267 -113 274 13 13 246 118 264 118 11 1 33 -39 72 -126z
m476 -138 c35 -84 37 -95 16 -95 -8 0 -28 27 -45 60 -17 33 -33 60 -36 60 -7
0 -151 -66 -174 -79 -9 -5 -14 -21 -12 -40 2 -25 -2 -31 -18 -31 -13 0 -25 12
-35 36 -8 20 -15 40 -15 43 0 9 249 119 271 120 11 1 26 -23 48 -74z m-60 -65
c12 -37 10 -38 -78 -42 -88 -4 -91 14 -9 51 34 16 66 27 70 25 3 -2 11 -18 17
-34z m-306 -44 c14 -31 14 -35 0 -40 -8 -4 -22 -1 -29 5 -19 16 -73 1 -99 -27
-21 -22 -27 -24 -76 -16 l-54 9 70 31 c39 18 88 41 110 51 54 27 59 26 78 -13z
m397 -50 c0 -3 -25 -23 -56 -45 l-55 -39 -71 24 c-39 13 -74 24 -78 24 -3 0
-46 -31 -94 -70 -49 -38 -91 -70 -94 -70 -7 0 -206 72 -211 77 -14 11 15 12
78 3 70 -10 73 -9 159 26 73 30 113 38 242 53 194 23 180 22 180 17z m76 -81
c4 -14 5 -27 3 -29 -2 -2 -65 -29 -139 -61 -74 -32 -209 -91 -299 -132 -91
-40 -171 -74 -178 -76 -8 -1 -31 36 -57 96 -25 53 -40 97 -34 97 6 0 53 -14
103 -32 l92 -32 91 72 c79 62 95 70 115 63 13 -5 46 -16 74 -24 l51 -15 73 49
c41 27 80 49 86 49 7 0 15 -11 19 -25z m46 -108 c3 -20 -50 -46 -455 -222
l-167 -74 -16 30 -15 30 58 26 c32 15 173 77 313 139 263 115 273 118 282 71z
m62 -136 c14 -35 25 -65 24 -67 -4 -3 -548 -244 -596 -263 -18 -8 -34 -12 -36
-10 -9 11 -56 123 -56 133 0 7 42 29 93 51 50 21 146 63 212 93 217 99 320
141 326 134 3 -4 18 -36 33 -71z"/>
<path d="M4680 3724 c-30 -13 -72 -31 -92 -40 -20 -9 -39 -21 -41 -28 -6 -16
49 -136 63 -136 20 0 21 27 1 73 l-20 46 56 26 c30 14 61 25 67 25 12 0 73
-116 65 -124 -2 -2 -23 -13 -46 -25 -42 -21 -58 -51 -28 -51 28 0 125 49 125
63 0 18 -76 183 -87 190 -5 3 -33 -6 -63 -19z"/>
<path d="M4290 3555 c-41 -19 -79 -40 -84 -48 -10 -16 13 -88 39 -123 10 -15
16 -16 26 -7 9 9 8 21 -5 53 -9 22 -16 44 -16 49 0 9 104 61 121 61 10 0 59
-105 59 -125 0 -8 -15 -19 -34 -25 -42 -14 -64 -36 -49 -51 17 -17 133 38 133
62 0 19 -56 154 -73 177 -14 18 -34 14 -117 -23z"/>
<path d="M4783 3362 c-45 -21 -85 -40 -89 -44 -9 -9 52 -138 66 -138 20 0 21
26 1 71 l-20 44 57 27 c31 14 62 27 69 27 10 1 63 -99 63 -120 0 -5 -20 -19
-45 -31 -42 -21 -56 -40 -36 -52 5 -3 36 6 71 21 73 32 73 32 16 156 -25 56
-40 77 -53 76 -10 0 -55 -17 -100 -37z"/>
<path d="M4440 3209 c-47 -21 -86 -44 -88 -52 -5 -24 46 -127 62 -127 21 0 20
30 -1 75 -9 19 -15 36 -12 38 18 16 124 56 130 50 4 -5 19 -34 33 -66 l25 -58
-44 -20 c-50 -22 -62 -36 -46 -52 8 -8 25 -4 63 13 87 39 86 35 35 144 -25 53
-52 96 -59 95 -7 -1 -51 -18 -98 -40z"/>
<path d="M2475 2503 c-43 -22 -95 -74 -95 -94 0 -24 54 -67 95 -75 106 -20
191 56 159 141 -16 41 -104 57 -159 28z"/>
<path d="M3586 2394 c-9 -20 -14 -39 -11 -42 7 -8 12 -1 30 41 20 48 4 48 -19
1z"/>
<path d="M2847 2295 c-27 -27 -51 -101 -36 -111 14 -8 29 5 29 27 0 12 7 19
19 19 21 0 31 19 31 55 0 35 -14 38 -43 10z"/>
<path d="M3143 2305 c-43 -30 -72 -130 -35 -123 11 2 16 11 14 25 -2 16 3 22
20 25 15 2 25 13 32 36 12 41 -2 58 -31 37z"/>
<path d="M3662 2297 c-24 -25 -28 -37 -12 -37 11 0 50 40 50 52 0 15 -16 8
-38 -15z"/>
<path d="M1787 2417 c-21 -32 -48 -99 -43 -104 2 -3 15 15 29 39 39 67 50 120
14 65z"/>
<path d="M1957 2395 c-9 -19 -13 -35 -8 -35 12 0 27 21 35 48 11 35 -8 26 -27
-13z"/>
<path d="M1941 2106 c-36 -13 -74 -52 -65 -67 12 -20 48 -6 92 36 50 48 43 57
-27 31z"/>
<path d="M3182 1816 c-52 -59 -78 -156 -41 -156 35 0 110 137 95 175 -8 23
-21 18 -54 -19z"/>
</g>
</svg>
